<svg width="63" height="53" viewBox="0 0 63 53" fill="none" xmlns="http://www.w3.org/2000/svg">
<path d="M4 23C2.067 23 0.5 24.567 0.5 26.5C0.5 28.433 2.067 30 4 30L4 23ZM61.4749 28.9749C62.8417 27.608 62.8417 25.392 61.4749 24.0251L39.201 1.75127C37.8342 0.384434 35.6181 0.384434 34.2513 1.75127C32.8844 3.1181 32.8844 5.33418 34.2513 6.70102L54.0503 26.5L34.2513 46.299C32.8844 47.6658 32.8844 49.8819 34.2513 51.2487C35.6181 52.6156 37.8342 52.6156 39.201 51.2487L61.4749 28.9749ZM4 30L59 30L59 23L4 23L4 30Z" fill="white"/>
</svg>
