<svg width="63" height="53" viewBox="0 0 63 53" fill="none" xmlns="http://www.w3.org/2000/svg">
<path d="M59 30C60.933 30 62.5 28.433 62.5 26.5C62.5 24.567 60.933 23 59 23L59 30ZM1.52513 24.0251C0.158291 25.392 0.158291 27.608 1.52513 28.9749L23.799 51.2487C25.1658 52.6156 27.3819 52.6156 28.7487 51.2487C30.1156 49.8819 30.1156 47.6658 28.7487 46.299L8.94975 26.5L28.7487 6.70101C30.1156 5.33417 30.1156 3.11809 28.7487 1.75126C27.3819 0.384421 25.1658 0.384421 23.799 1.75126L1.52513 24.0251ZM59 23L4 23L4 30L59 30L59 23Z" fill="white"/>
</svg>
